<svg width="82" height="97" viewBox="0 0 82 97" fill="none" xmlns="http://www.w3.org/2000/svg">
<ellipse cx="41" cy="52.5" rx="41" ry="44.5" fill="#FFD700"/>
<ellipse cx="41" cy="44.5" rx="41" ry="44.5" fill="#002D62"/>
<g clip-path="url(#clip0_106_1742)">
<path d="M38.4633 60.2087C40.139 60.4872 41.849 60.4883 43.525 60.2121M38.4633 60.2087C34.8641 59.6079 31.5929 57.7499 29.2348 54.9651C26.8767 52.1804 25.5828 48.6495 25.5833 45.0004C25.5839 42.0593 26.4258 39.1798 28.0096 36.7016C29.5933 34.2234 31.853 32.2499 34.5218 31.0141C37.1906 29.7782 40.1572 29.3315 43.0716 29.7267C45.986 30.1219 48.7265 31.3425 50.9698 33.2445C53.2131 35.1465 54.8656 37.6504 55.7322 40.4609C56.5988 43.2714 56.6434 46.2711 55.8608 49.1061C55.0781 51.9412 53.5008 54.4932 51.3151 56.461C49.1294 58.4288 46.4263 59.7304 43.525 60.2121M38.4633 60.2087L38.4616 51.8671H35.3C35.0348 51.8671 34.7804 51.7617 34.5929 51.5742C34.4053 51.3866 34.3 51.1323 34.3 50.8671V47.8037C34.3 47.5385 34.4053 47.2842 34.5929 47.0966C34.7804 46.9091 35.0348 46.8037 35.3 46.8037H38.4616V41.5837C38.4616 40.2577 38.9884 38.9859 39.9261 38.0482C40.8638 37.1105 42.1356 36.5837 43.4616 36.5837H46.4783C46.9203 36.5837 47.3443 36.7593 47.6568 37.0719C47.9694 37.3845 48.145 37.8084 48.145 38.2504V39.9837C48.145 40.4258 47.9694 40.8497 47.6568 41.1623C47.3443 41.4748 46.9203 41.6504 46.4783 41.6504H45.1916C44.7496 41.6504 44.3257 41.826 44.0131 42.1386C43.7006 42.4511 43.525 42.875 43.525 43.3171V46.8037H47.3533C47.4985 46.8037 47.6419 46.8353 47.7736 46.8963C47.9053 46.9573 48.0222 47.0462 48.1161 47.1569C48.2099 47.2676 48.2786 47.3974 48.3173 47.5373C48.3559 47.6772 48.3637 47.8239 48.34 47.9671L47.9233 50.4737C47.8586 50.8629 47.658 51.2165 47.3571 51.4716C47.0561 51.7268 46.6745 51.8669 46.28 51.8671H43.525V60.2121" stroke="white" stroke-width="2" stroke-linecap="round"/>
</g>
<defs>
<clipPath id="clip0_106_1742">
<rect width="40" height="40" fill="white" transform="translate(21 25)"/>
</clipPath>
</defs>
</svg>
