<svg width="82" height="97" viewBox="0 0 82 97" fill="none" xmlns="http://www.w3.org/2000/svg">
<ellipse cx="41" cy="52.5" rx="41" ry="44.5" fill="#FFD700"/>
<ellipse cx="41" cy="44.5" rx="41" ry="44.5" fill="white"/>
<path fill-rule="evenodd" clip-rule="evenodd" d="M53.984 57.9815C54.7664 57.1967 55.3808 56.2535 55.7816 55.2191C56.1656 54.2255 56.4296 53.0927 56.5064 51.4319C56.5832 49.7711 56.6024 49.2359 56.6024 44.9999C56.6024 40.7639 56.5832 40.2311 56.5064 38.5679C56.4296 36.9071 56.1656 35.7743 55.7816 34.7807C55.3887 33.7404 54.7745 32.7979 53.9816 32.0183C53.202 31.2254 52.2595 30.6112 51.2192 30.2183C50.2256 29.8343 49.0928 29.5703 47.432 29.4935C45.7712 29.4167 45.236 29.3999 41 29.3999C36.764 29.3999 36.2312 29.4167 34.568 29.4959C32.9072 29.5679 31.7744 29.8319 30.7808 30.2183C29.7406 30.6112 28.7981 31.2254 28.0184 32.0183C27.2255 32.7979 26.6114 33.7404 26.2184 34.7807C25.8344 35.7743 25.5704 36.9071 25.4936 38.5679C25.4168 40.2287 25.4 40.7639 25.4 44.9999C25.4 49.2359 25.4168 49.7687 25.496 51.4319C25.568 53.0927 25.832 54.2255 26.2184 55.2191C26.612 56.2607 27.2264 57.2015 28.0184 57.9815C28.7984 58.7735 29.7416 59.3879 30.7808 59.7815C31.7744 60.1655 32.9072 60.4295 34.568 60.5063C36.2288 60.5831 36.764 60.5999 41 60.5999C45.236 60.5999 45.7688 60.5807 47.432 60.5039C49.0928 60.4319 50.2256 60.1679 51.2192 59.7815C52.2561 59.3819 53.1997 58.7686 53.984 57.9815ZM27.8 43.1639V46.8359C27.7952 48.8063 27.7952 49.3175 27.848 50.4359C27.9104 51.8423 27.9872 52.8743 28.2224 53.6519C28.448 54.4007 28.7 55.1639 29.5256 56.0807C30.3512 56.9999 31.1456 57.4151 32.1584 57.7223C33.1736 58.0271 34.448 58.0919 35.5544 58.1423C36.8072 58.1999 37.3064 58.1999 39.9368 58.1999H42.776C44.7968 58.2023 45.3056 58.2047 46.4384 58.1519C47.8424 58.0871 48.8744 58.0103 49.6544 57.7775C50.4008 57.5519 51.164 57.2975 52.0808 56.4743C53 55.6487 53.4152 54.8519 53.7224 53.8391C54.0272 52.8263 54.0944 51.5519 54.1448 50.4455C54.2 49.1927 54.2 48.6959 54.2 46.0727V43.9367C54.2 41.3063 54.2 40.8095 54.1448 39.5543C54.0944 38.4479 54.0272 37.1735 53.7224 36.1607C53.4176 35.1455 53.0024 34.3511 52.0808 33.5255C51.1616 32.6999 50.4008 32.4479 49.6544 32.2223C48.8744 31.9895 47.8424 31.9103 46.4384 31.8479C45.2183 31.7974 43.997 31.7814 42.776 31.7999H39.9368C37.3064 31.7999 36.8072 31.7999 35.5544 31.8551C34.448 31.9055 33.1736 31.9727 32.1584 32.2775C31.1456 32.5847 30.3512 32.9999 29.5256 33.9191C28.7 34.8383 28.4456 35.5991 28.2224 36.3479C27.9872 37.1255 27.9104 38.1575 27.848 39.5639C27.7952 40.6823 27.7952 41.1935 27.8 43.1639ZM41 39.5999C39.5679 39.5999 38.1943 40.1688 37.1816 41.1815C36.169 42.1942 35.6 43.5677 35.6 44.9999C35.6 46.4321 36.169 47.8056 37.1816 48.8183C38.1943 49.831 39.5679 50.3999 41 50.3999C42.4322 50.3999 43.8057 49.831 44.8184 48.8183C45.8311 47.8056 46.4 46.4321 46.4 44.9999C46.4 43.5677 45.8311 42.1942 44.8184 41.1815C43.8057 40.1688 42.4322 39.5999 41 39.5999ZM33.2 44.9999C33.2 42.9312 34.0218 40.9473 35.4846 39.4845C36.9474 38.0217 38.9313 37.1999 41 37.1999C43.0687 37.1999 45.0527 38.0217 46.5155 39.4845C47.9782 40.9473 48.8 42.9312 48.8 44.9999C48.8 47.0686 47.9782 49.0525 46.5155 50.5153C45.0527 51.9781 43.0687 52.7999 41 52.7999C38.9313 52.7999 36.9474 51.9781 35.4846 50.5153C34.0218 49.0525 33.2 47.0686 33.2 44.9999ZM49.328 38.4719C49.8054 38.4719 50.2633 38.2823 50.6008 37.9447C50.9384 37.6071 51.128 37.1493 51.128 36.6719C51.128 36.1945 50.9384 35.7367 50.6008 35.3991C50.2633 35.0615 49.8054 34.8719 49.328 34.8719C48.8506 34.8719 48.3928 35.0615 48.0552 35.3991C47.7177 35.7367 47.528 36.1945 47.528 36.6719C47.528 37.1493 47.7177 37.6071 48.0552 37.9447C48.3928 38.2823 48.8506 38.4719 49.328 38.4719Z" fill="#002D62"/>
</svg>
