<svg width="82" height="97" viewBox="0 0 82 97" fill="none" xmlns="http://www.w3.org/2000/svg">
<ellipse cx="41" cy="52.5" rx="41" ry="44.5" fill="#FFD700"/>
<ellipse cx="41" cy="44.5" rx="41" ry="44.5" fill="#002D62"/>
<path fill-rule="evenodd" clip-rule="evenodd" d="M53.984 57.982C54.7664 57.1972 55.3808 56.254 55.7816 55.2196C56.1656 54.226 56.4296 53.0932 56.5064 51.4324C56.5832 49.7716 56.6024 49.2364 56.6024 45.0004C56.6024 40.7644 56.5832 40.2316 56.5064 38.5684C56.4296 36.9076 56.1656 35.7748 55.7816 34.7812C55.3887 33.7409 54.7745 32.7984 53.9816 32.0188C53.202 31.2259 52.2595 30.6117 51.2192 30.2188C50.2256 29.8348 49.0928 29.5708 47.432 29.494C45.7712 29.4172 45.236 29.4004 41 29.4004C36.764 29.4004 36.2312 29.4172 34.568 29.4964C32.9072 29.5684 31.7744 29.8324 30.7808 30.2188C29.7406 30.6117 28.7981 31.2259 28.0184 32.0188C27.2255 32.7984 26.6114 33.7409 26.2184 34.7812C25.8344 35.7748 25.5704 36.9076 25.4936 38.5684C25.4168 40.2292 25.4 40.7644 25.4 45.0004C25.4 49.2364 25.4168 49.7692 25.496 51.4324C25.568 53.0932 25.832 54.226 26.2184 55.2196C26.612 56.2612 27.2264 57.202 28.0184 57.982C28.7984 58.774 29.7416 59.3884 30.7808 59.782C31.7744 60.166 32.9072 60.43 34.568 60.5068C36.2288 60.5836 36.764 60.6004 41 60.6004C45.236 60.6004 45.7688 60.5812 47.432 60.5044C49.0928 60.4324 50.2256 60.1684 51.2192 59.782C52.2561 59.3824 53.1997 58.7691 53.984 57.982ZM27.8 43.1644V46.8364C27.7952 48.8068 27.7952 49.318 27.848 50.4364C27.9104 51.8428 27.9872 52.8748 28.2224 53.6524C28.448 54.4012 28.7 55.1644 29.5256 56.0812C30.3512 57.0004 31.1456 57.4156 32.1584 57.7228C33.1736 58.0276 34.448 58.0924 35.5544 58.1428C36.8072 58.2004 37.3064 58.2004 39.9368 58.2004H42.776C44.7968 58.2028 45.3056 58.2052 46.4384 58.1524C47.8424 58.0876 48.8744 58.0108 49.6544 57.778C50.4008 57.5524 51.164 57.298 52.0808 56.4748C53 55.6492 53.4152 54.8524 53.7224 53.8396C54.0272 52.8268 54.0944 51.5524 54.1448 50.446C54.2 49.1932 54.2 48.6964 54.2 46.0732V43.9372C54.2 41.3068 54.2 40.81 54.1448 39.5548C54.0944 38.4484 54.0272 37.174 53.7224 36.1612C53.4176 35.146 53.0024 34.3516 52.0808 33.526C51.1616 32.7004 50.4008 32.4484 49.6544 32.2228C48.8744 31.99 47.8424 31.9108 46.4384 31.8484C45.2183 31.7979 43.997 31.7819 42.776 31.8004H39.9368C37.3064 31.8004 36.8072 31.8004 35.5544 31.8556C34.448 31.906 33.1736 31.9732 32.1584 32.278C31.1456 32.5852 30.3512 33.0004 29.5256 33.9196C28.7 34.8388 28.4456 35.5996 28.2224 36.3484C27.9872 37.126 27.9104 38.158 27.848 39.5644C27.7952 40.6828 27.7952 41.194 27.8 43.1644ZM41 39.6004C39.5679 39.6004 38.1943 40.1693 37.1816 41.182C36.169 42.1947 35.6 43.5682 35.6 45.0004C35.6 46.4326 36.169 47.8061 37.1816 48.8188C38.1943 49.8315 39.5679 50.4004 41 50.4004C42.4322 50.4004 43.8057 49.8315 44.8184 48.8188C45.8311 47.8061 46.4 46.4326 46.4 45.0004C46.4 43.5682 45.8311 42.1947 44.8184 41.182C43.8057 40.1693 42.4322 39.6004 41 39.6004ZM33.2 45.0004C33.2 42.9317 34.0218 40.9477 35.4846 39.485C36.9474 38.0222 38.9313 37.2004 41 37.2004C43.0687 37.2004 45.0527 38.0222 46.5155 39.485C47.9782 40.9477 48.8 42.9317 48.8 45.0004C48.8 47.0691 47.9782 49.053 46.5155 50.5158C45.0527 51.9786 43.0687 52.8004 41 52.8004C38.9313 52.8004 36.9474 51.9786 35.4846 50.5158C34.0218 49.053 33.2 47.0691 33.2 45.0004ZM49.328 38.4724C49.8054 38.4724 50.2633 38.2827 50.6008 37.9452C50.9384 37.6076 51.128 37.1498 51.128 36.6724C51.128 36.195 50.9384 35.7372 50.6008 35.3996C50.2633 35.062 49.8054 34.8724 49.328 34.8724C48.8506 34.8724 48.3928 35.062 48.0552 35.3996C47.7177 35.7372 47.528 36.195 47.528 36.6724C47.528 37.1498 47.7177 37.6076 48.0552 37.9452C48.3928 38.2827 48.8506 38.4724 49.328 38.4724Z" fill="white"/>
</svg>
