<svg width="24" height="24" viewBox="0 0 24 24" fill="none" xmlns="http://www.w3.org/2000/svg">
<path d="M19.5 21C17.7 21 15.825 20.5292 13.875 19.5875C11.925 18.6458 10.1 17.325 8.4 15.625C6.68333 13.925 5.35417 12.1 4.4125 10.15C3.47083 8.2 3 6.31667 3 4.5V3H8.375L9.375 7.725L6.45 10.7C6.91667 11.45 7.39583 12.1458 7.8875 12.7875C8.37917 13.4292 8.89167 14.0167 9.425 14.55C10.025 15.15 10.6667 15.7125 11.35 16.2375C12.0333 16.7625 12.7667 17.2417 13.55 17.675L16.475 14.65L21 15.625V21H19.5ZM5.725 9.3L7.75 7.25L7.175 4.5H4.5C4.5 5.13333 4.59583 5.84167 4.7875 6.625C4.97917 7.40833 5.29167 8.3 5.725 9.3ZM14.95 18.375C15.6333 18.6917 16.375 18.95 17.175 19.15C17.975 19.35 18.75 19.4667 19.5 19.5V16.825L16.925 16.3L14.95 18.375Z" fill="#002D62"/>
</svg>
