<svg width="82" height="97" viewBox="0 0 82 97" fill="none" xmlns="http://www.w3.org/2000/svg">
<ellipse cx="41" cy="52.5" rx="41" ry="44.5" fill="#FFD700"/>
<ellipse cx="41" cy="44.5" rx="41" ry="44.5" fill="#002D62"/>
<g clip-path="url(#clip0_106_1749)">
<path d="M36.8025 40.04C36.1275 39.59 33.8875 38.035 33.8875 38.035C35.7775 35.3325 38.27 34.28 41.7175 34.28C44.155 34.28 46.225 35.0975 47.7025 36.65C49.18 38.2025 50.0225 40.4225 50.215 43.26C51.035 43.605 51.7892 44.0083 52.4775 44.47C55.25 46.3325 56.775 49.12 56.775 52.3125C56.775 59.1025 51.21 65 41.135 65C32.485 65 23.5 59.9675 23.5 44.985C23.5 30.085 32.205 25 41.11 25C45.225 25 54.875 25.6075 58.5 37.59L55.1 38.4725C52.29 29.935 46.4075 28.575 41.015 28.575C32.1025 28.575 27.06 34.0025 27.06 45.55C27.06 55.9075 32.695 61.4075 41.135 61.4075C48.0775 61.4075 53.2525 57.8 53.2525 52.5175C53.2525 48.9225 50.2325 47.2 50.0775 47.2C49.4875 50.285 47.9075 55.475 40.9675 55.475C36.9225 55.475 33.435 52.68 33.435 49.02C33.435 43.795 38.395 41.9025 42.31 41.9025C43.775 41.9025 45.545 42.0025 46.4675 42.1875C46.4675 40.595 45.1175 37.8675 41.7175 37.8675C38.5925 37.8675 37.8025 38.88 36.8 40.0375L36.8025 40.04ZM42.79 45.475C37.69 45.475 37.03 47.65 37.03 49.015C37.03 51.21 39.6375 51.935 41.03 51.935C43.58 51.935 46.1975 51.23 46.61 45.8775C45.3583 45.5855 44.0751 45.4503 42.79 45.475Z" fill="white"/>
</g>
<defs>
<clipPath id="clip0_106_1749">
<rect width="40" height="40" fill="white" transform="translate(21 25)"/>
</clipPath>
</defs>
</svg>
