<svg width="82" height="97" viewBox="0 0 82 97" fill="none" xmlns="http://www.w3.org/2000/svg">
<ellipse cx="41" cy="52.5" rx="41" ry="44.5" fill="#FFD700"/>
<ellipse cx="41" cy="44.5" rx="41" ry="44.5" fill="white"/>
<path d="M47.9 35.73C46.8749 34.5593 46.3098 33.0561 46.31 31.5H41.675V50.1C41.64 51.1068 41.2153 52.0606 40.4905 52.7602C39.7656 53.4599 38.7974 53.8506 37.79 53.85C35.66 53.85 33.89 52.11 33.89 49.95C33.89 47.37 36.38 45.435 38.945 46.23V41.49C33.77 40.8 29.24 44.82 29.24 49.95C29.24 54.945 33.38 58.5 37.775 58.5C42.485 58.5 46.31 54.675 46.31 49.95V40.515C48.1895 41.8648 50.446 42.589 52.76 42.585V37.95C52.76 37.95 49.94 38.085 47.9 35.73Z" fill="#002D62"/>
</svg>
